HIERARCHY
ROOT Hips
{
	OFFSET -0.179506 -22.333345 2.821913
	CHANNELS 6 Xposition Yposition Zposition Zrotation Yrotation Xrotation 
	JOINT LeftUpLeg
	{
		OFFSET 6.951974 -9.140623 -0.681533
		CHANNELS 3 Zrotation Yrotation Xrotation
		JOINT LeftLeg
		{
			OFFSET 3.427654 -37.519855 -0.449580
			CHANNELS 3 Zrotation Yrotation Xrotation
			JOINT LeftFoot
			{
				OFFSET -1.359570 -39.796059 -4.369333
				CHANNELS 3 Zrotation Yrotation Xrotation
				JOINT LeftToe
				{
					OFFSET 2.635814 -5.579078 11.928840
					CHANNELS 3 Zrotation Yrotation Xrotation
					End Site
					{
						OFFSET 0.000000 0.000000 0.000000
					}
				}
			}
		}
	}
	JOINT RightUpLeg
	{
		OFFSET -6.767048 -9.052170 -0.431982
		CHANNELS 3 Zrotation Yrotation Xrotation
		JOINT RightLeg
		{
			OFFSET -3.829005 -38.256897 -0.885003
			CHANNELS 3 Zrotation Yrotation Xrotation
			JOINT RightFoot
			{
				OFFSET 1.577377 -39.841461 -4.231180
				CHANNELS 3 Zrotation Yrotation Xrotation
				JOINT RightToe
				{
					OFFSET -2.537174 -4.814398 12.334795
					CHANNELS 3 Zrotation Yrotation Xrotation
					End Site
					{
						OFFSET 0.000000 0.000000 0.000000
					}
				}
			}
		}
	}
	JOINT Spine
	{
		OFFSET -0.253288 10.896323 -2.669631
		CHANNELS 3 Zrotation Yrotation Xrotation
		JOINT Spine1
		{
			OFFSET 0.548704 13.518043 0.109247
			CHANNELS 3 Zrotation Yrotation Xrotation
			JOINT Spine2
			{
				OFFSET 0.145701 5.292222 2.542457
				CHANNELS 3 Zrotation Yrotation Xrotation
				JOINT Neck
				{
					OFFSET -0.277840 21.387037 -4.285703
					CHANNELS 3 Zrotation Yrotation Xrotation
					JOINT Head
					{
						OFFSET 0.515184 6.496960 5.134897
						CHANNELS 3 Zrotation Yrotation Xrotation
						End Site
						{
							OFFSET 0.000000 0.000000 0.000000
						}
					}
				}
				JOINT LeftShoulder
				{
					OFFSET 7.884473 12.174932 -3.408961
					CHANNELS 3 Zrotation Yrotation Xrotation
					JOINT LeftArm
					{
						OFFSET 9.097692 3.046888 -0.886815
						CHANNELS 3 Zrotation Yrotation Xrotation
						JOINT LeftForeArm
						{
							OFFSET 25.961220 -1.277207 -2.745643
							CHANNELS 3 Zrotation Yrotation Xrotation
							JOINT LeftHand
							{
								OFFSET 24.923361 0.898606 -0.117091
								CHANNELS 3 Zrotation Yrotation Xrotation
								End Site
								{
									OFFSET 0.000000 0.000000 0.000000
								}
							}
						}
					}
				}
				JOINT RightShoulder
				{
					OFFSET -8.175920 11.883285 -3.861528
					CHANNELS 3 Zrotation Yrotation Xrotation
					JOINT RightArm
					{
						OFFSET -9.601238 3.255117 -0.914307
						CHANNELS 3 Zrotation Yrotation Xrotation
						JOINT RightForeArm
						{
							OFFSET -25.374195 -1.332924 -2.140099
							CHANNELS 3 Zrotation Yrotation Xrotation
							JOINT RightHand
							{
								OFFSET -25.529810 0.777228 -0.555919
								CHANNELS 3 Zrotation Yrotation Xrotation
								End Site
								{
									OFFSET 0.000000 0.000000 0.000000
								}
							}
						}
					}
				}
			}
		}
	}
}
MOTION
Frames: 11
Frame Time: 0.033333
-0.179506 112.595306 2.821913 0.605150 -5.424411 0.184777 6.077618 2.534829 -4.742082 -1.542662 -4.846587 8.233150 -0.760489 10.569371 -16.672618 0.997629 1.123667 -0.109463 -7.033979 -2.063467 -7.883146 -0.382897 2.378795 8.059484 4.360671 -8.376570 -9.572518 2.914835 -1.518812 -0.871571 -1.423255 0.545299 7.397760 1.678877 -2.841214 4.830616 -1.053929 -1.121188 -4.422486 -1.436154 -2.310098 -7.568404 5.751743 0.790753 -15.883104 -23.860958 1.276595 2.853738 -22.710000 2.061282 7.222224 0.486627 -49.951329 4.623861 -6.818740 -20.190581 1.634090 18.039937 3.704205 2.375421 28.343503 -4.104561 7.997768 -2.005292 57.194123 5.459990 5.384928 16.912181 0.208075 
-0.262973 112.602509 2.857791 0.664116 -5.305943 0.386077 6.115950 2.681645 -4.682190 -1.556350 -4.646416 7.683947 -0.856244 10.270557 -16.442383 1.069636 1.121348 -0.077992 -7.053612 -2.166621 -7.871372 -0.367912 2.276202 7.721131 4.338354 -8.346888 -9.540175 2.855220 -1.505356 -0.848599 -1.510084 0.581300 7.167182 1.744142 -2.879506 4.885578 -1.039689 -1.059031 -4.477446 -1.241842 -2.004543 -7.770693 5.762857 0.848429 -15.788218 -23.841790 1.289132 2.745522 -22.774695 1.997058 7.342028 0.629258 -49.810853 4.428180 -6.889729 -20.220578 1.756214 18.076673 3.578724 2.356717 28.367399 -4.146373 8.043141 -2.034304 57.130907 5.351114 5.666043 16.846472 0.270693 
-0.388821 112.594269 2.872317 0.764402 -5.358193 0.565582 6.126380 2.751269 -4.694625 -1.567042 -4.399930 7.372717 -0.902206 10.081747 -16.261265 1.115274 1.108254 -0.070526 -7.086194 -2.167620 -8.046476 -0.343922 2.211349 7.670777 4.323075 -8.286817 -9.660182 2.813850 -1.472823 -0.831030 -1.571529 0.606627 7.114266 1.748684 -2.878950 4.828405 -0.999500 -0.995651 -4.472530 -1.137262 -1.732214 -8.030792 5.767507 0.982723 -15.815954 -23.789042 1.255139 2.648354 -22.885066 1.993659 7.438157 0.789994 -49.553262 4.227393 -6.777475 -20.195457 1.710625 18.111461 3.520734 2.361911 28.385705 -4.110699 8.100036 -2.134508 57.238594 5.211086 5.693957 16.831540 0.277372 
-0.359117 112.572586 2.852416 0.765829 -5.343214 0.627388 6.106577 2.755568 -4.722214 -1.553917 -4.290448 7.270538 -0.825600 9.987631 -16.304589 1.109334 1.109232 -0.077475 -7.106261 -2.176486 -8.140579 -0.359778 2.184281 7.696189 4.382916 -8.245174 -9.716693 2.824479 -1.467311 -0.842438 -1.602822 0.621058 7.265637 1.765115 -2.824631 4.642112 -0.947283 -0.951967 -4.329574 -1.115510 -1.564011 -8.207178 5.750381 1.074535 -15.812322 -23.706860 1.203507 2.573382 -23.143792 1.946393 7.503347 0.965000 -49.647373 4.199564 -6.394812 -20.163302 1.560704 18.074740 3.502006 2.321771 28.404373 -4.038388 8.043007 -2.397802 57.039647 4.863404 5.358754 16.807612 0.191640 
-0.329787 112.542084 2.798172 0.741183 -5.349850 0.622901 6.128904 2.777655 -4.781356 -1.584355 -4.299584 7.332415 -0.808376 9.981925 -16.455903 1.103491 1.106273 -0.103389 -7.101192 -2.174272 -8.224376 -0.353968 2.248681 7.795250 4.427180 -8.239877 -9.828486 2.856800 -1.490006 -0.845185 -1.562760 0.612986 7.509746 1.789952 -2.804415 4.398177 -0.893490 -0.925260 -4.155388 -1.127016 -1.311401 -8.331365 5.706217 1.320159 -15.811649 -23.572889 1.113567 2.527237 -23.426513 1.897370 7.494862 0.973940 -49.593476 4.384201 -6.150457 -20.148289 1.395624 17.968075 3.512894 2.277516 28.397682 -3.940465 8.015172 -2.566122 57.047960 4.702565 5.029372 16.772648 0.111897 
-0.227234 112.504837 2.586046 0.651537 -5.387641 0.564995 6.162621 2.790250 -4.986691 -1.609966 -4.334568 7.576329 -0.763694 10.040219 -16.674591 1.130224 1.099169 -0.141914 -7.102805 -2.182220 -8.438099 -0.283416 2.317168 8.013389 4.461649 -8.154748 -9.790401 2.916057 -1.504086 -0.847863 -1.490393 0.610164 7.877053 1.802330 -2.783032 4.145062 -0.795013 -0.883600 -3.978140 -1.210121 -0.908386 -8.377662 5.663693 1.811836 -15.832195 -23.423420 0.842104 2.483813 -23.721985 1.754093 7.413642 0.977400 -49.444244 4.517011 -5.729607 -20.100222 1.165627 17.784510 3.657606 2.244574 28.380466 -3.699818 7.972673 -2.788924 56.916309 4.513158 4.656097 16.708169 0.167068 
-0.168412 112.465317 2.324089 0.600651 -5.506702 0.615408 6.186442 2.774959 -5.378442 -1.639598 -4.304223 7.905979 -0.751843 10.120470 -16.817056 1.200296 1.107928 -0.192838 -7.118036 -2.284046 -8.817867 -0.200333 2.223351 8.197294 4.571187 -7.859661 -9.745393 2.980685 -1.517059 -0.838956 -1.381448 0.639820 8.373933 1.781649 -2.740899 3.900517 -0.677844 -0.816873 -3.819288 -1.284020 -0.207996 -8.433413 5.550328 2.461198 -15.738311 -23.280060 0.586623 2.443988 -23.836432 1.587992 7.348287 0.859564 -49.459646 4.615042 -5.191378 -20.058576 0.835655 17.615079 3.787089 2.227682 28.350595 -3.373646 7.923167 -3.112188 56.992872 4.191314 4.176258 16.609034 0.175249 
-0.073400 112.430481 1.984652 0.542612 -5.852636 0.680433 6.191566 2.779860 -5.950182 -1.665807 -4.040770 8.525378 -0.666310 10.206255 -16.926001 1.316822 1.099480 -0.275164 -7.101425 -2.419270 -9.428032 -0.170625 2.044313 8.547019 4.763185 -7.353270 -9.613964 3.075708 -1.528338 -0.818388 -1.260491 0.678681 9.124905 1.666221 -2.635408 3.598494 -0.492079 -0.733463 -3.598386 -1.432972 0.697041 -8.612917 5.352425 3.335976 -15.711817 -23.154878 0.178494 2.431378 -23.954658 1.398755 7.242544 0.853061 -49.471275 4.542269 -4.298648 -19.897388 0.327619 17.427308 4.120375 2.211584 28.564837 -2.890830 7.831807 -3.864842 57.006166 3.466327 3.308185 16.475220 0.142529 
-0.012374 112.410172 1.645148 0.516613 -6.213535 0.764504 6.142112 2.760015 -6.422354 -1.577790 -3.764138 8.904900 -0.541670 10.291552 -16.855927 1.387395 1.111490 -0.337517 -7.077569 -2.573921 -9.969982 -0.169988 1.900840 8.719295 4.935959 -6.816695 -9.388506 3.156317 -1.545582 -0.791743 -1.095333 0.712861 9.920252 1.528856 -2.444897 3.280781 -0.299996 -0.633046 -3.366295 -1.616396 1.893597 -8.735717 5.101879 4.481837 -15.531079 -23.097652 -0.238968 2.410882 -24.191528 1.253781 7.225394 0.714258 -49.670888 4.553095 -3.346939 -19.693229 -0.345597 17.308258 4.509824 2.238483 29.118376 -2.288709 7.809318 -4.429395 56.971856 2.781607 2.482674 16.242994 -0.019113 
0.051362 112.414337 1.458947 0.375002 -6.728095 1.068469 6.211263 2.765288 -7.082571 -1.498282 -3.303706 9.487911 -0.422435 10.382005 -16.772227 1.539494 1.096165 -0.447056 -6.965197 -2.682740 -10.746242 -0.092886 1.757735 9.049459 5.058579 -6.173612 -9.047846 3.340139 -1.553294 -0.753511 -0.830762 0.706493 10.924752 1.343088 -2.256132 2.728892 -0.003701 -0.522003 -2.943820 -1.870269 3.481324 -8.957008 4.839148 6.013639 -15.257717 -22.982180 -0.728485 2.398717 -25.242346 1.016489 7.238376 0.602044 -49.778666 4.861804 -1.963663 -19.484641 -1.417821 17.190512 4.876968 2.268717 30.431860 -1.590874 7.959164 -5.065666 57.039650 2.122751 1.095923 16.032379 -0.513849 
0.237990 112.452774 1.246754 0.088597 -7.185894 1.537604 6.319875 2.759389 -7.974722 -1.360781 -3.006885 10.121239 -0.410161 10.464161 -16.663260 1.710288 1.066823 -0.586889 -6.730238 -2.788339 -11.763343 -0.100786 1.562047 9.482469 5.317017 -5.531248 -8.384992 3.600212 -1.587488 -0.719073 -0.462389 0.599219 12.150490 1.093284 -2.023163 1.911451 0.401257 -0.470188 -2.371899 -2.285339 5.135257 -9.202273 4.624698 7.632242 -14.870866 -22.715491 -1.037352 2.414098 -27.052519 0.805095 7.430587 0.284168 -50.363842 5.611696 -0.437389 -19.405160 -3.265856 16.794002 4.961418 2.291772 31.987867 -1.145329 8.174951 -5.605601 57.980676 1.693785 -0.510483 15.960457 -1.806456 
